# xmcd
#
# Track frame offsets:
# 150
# 10404
# 13138
# 18519
# 24455
# 26865
# 33437
# 37676
# 45071
# 54023
# 61719
# 67012
# 71573
# 75155
# 80307
# 89422
# 98527
# 105233
# 113739
# 121476
# 127666
# 136201
# 142287
# 146258
# 153000
# 157579
# 162265
# 167317
# 172466
# 181421
# 186911
# 195495
# 201198
# 206971
# 214168
# 219361
# 224298
# 227254
# 236075
# 238283
# 241040
# 244721
# 249508
# 252642
# 259294
# 265941
# 274372
# 283260
# 286445
# 292112
# 304848
# 321487
#
# Disc length: 4439 seconds
#
# Revision: 0
# Processed by: cddbd v1.4PL0 Copyright (c) Steve Scherf et al.
# Submitted via: Audion 3.0.2 (http://www.panic.com/audion/)
#
DISCID=e3115534
DTITLE=DJ Vlad - Dancehall Murda Vol. 3
DYEAR=1900
DGENRE=
TTITLE0=Biggie-Nasty Boy (DJ Vlad Reggae Mix)
TTITLE1=Pilers-Bam Bam
TTITLE2=Chaka Demus and Pliers-Murder She Wrote
TTITLE3=Shaggy-It Wasn't Me (DJ Vlad Mix)
TTITLE4=Buju Banton-Champion (DJ Vlad Mix)
TTITLE5=Patra-Wok the Money
TTITLE6=Busta Rhymes-Dangerous (DJ Vlad Reggae Mix)
TTITLE7=Super Cat-We Nuh Stop Cry
TTITLE8=Lauryn Hill-Lost Ones (reggae mix)
TTITLE9=Beenie Man-Woman a Modler
TTITLE10=Buju Banton f. Nadine Sutherland-Action
TTITLE11=General Degree-Mr. Do It Nice
TTITLE12=Jigsy King-Gal a Fuss
TTITLE13=Cutty Ranks-Ahe Who Seh Me Dun
TTITLE14=Mr. Vegas-Chuckle Boo
TTITLE15=Shabba Ranks-Ting-a-Ling
TTITLE16=Shabba Ranks-Caan Dun
TTITLE17=Beenie Man-Who Am I (remix)
TTITLE18=Sean Paul-Infiltrate
TTITLE19=Destiny's Child-No.No.No (DJ Vlad Reggae Mix)
TTITLE20=Beenie Man-Romie
TTITLE21=Dirtsman-Hot This Year
TTITLE22=Red Fox and Screechie Dan-Pose Off
TTITLE23=Shaggy and Rayvon-Big Up
TTITLE24=Mr. Vegas-Heads High
TTITLE25=Spragga Benz-She Nuh Ready Yet
TTITLE26=Lady Saw-Ease Off, Breeze Off
TTITLE27=Beenie Man-Let Him Go
TTITLE28=Red Rat-Oh Nooo
TTITLE29=Red Rat-Tight Up Skirt
TTITLE30=TOK-Chi Chi Man
TTITLE31=TOK-Chi Chi Man Pt. 2 (exclusive)
TTITLE32=DMX, Mr. Vegas, Sean Paul-Top Shotter
TTITLE33=Rugah-Hardcore Lover
TTITLE34=Bounty Killer-Anytime
TTITLE35=Capleton-Tour
TTITLE36=Capleton-Tour (Hip Hop Mix)
TTITLE37=Mad Lion-Take It Easy
TTITLE38=Super Cat-Ghetto Red Hot (Hip Hop Mix)
TTITLE39=Super Cat-Ghetto Red Hot
TTITLE40=Super Cat-Shetto Red Hot (Hip Hop Mix)
TTITLE41=Tanya Stephens-Goggle (Hip Hop Mix)
TTITLE42=Cutty Ranks-Stopper (DJ Vlad Mix)
TTITLE43=Junior Reid-John Law (Hip Hop Mix)
TTITLE44=Sasha-Kill the Bitch
TTITLE45=Buju Banton-Bogle
TTITLE46=Buju Banton-Batty Rider
TTITLE47=Simpleton-Coca Cola Shape
TTITLE48=Mad Cobra-Shot a Talk
TTITLE49=Capleton and Mad Cobra-Good Hole
TTITLE50=Busta Rhymes-Whoo Haa (DJ Vlad Reggae Mix)
TTITLE51=Aaliyah-Are You That Somebody (DJ Vlad Reggae Mix)
EXTD=
EXTT0=
EXTT1=
EXTT2=
EXTT3=
EXTT4=
EXTT5=
EXTT6=
EXTT7=
EXTT8=
EXTT9=
EXTT10=
EXTT11=
EXTT12=
EXTT13=
EXTT14=
EXTT15=
EXTT16=
EXTT17=
EXTT18=
EXTT19=
EXTT20=
EXTT21=
EXTT22=
EXTT23=
EXTT24=
EXTT25=
EXTT26=
EXTT27=
EXTT28=
EXTT29=
EXTT30=
EXTT31=
EXTT32=
EXTT33=
EXTT34=
EXTT35=
EXTT36=
EXTT37=
EXTT38=
EXTT39=
EXTT40=
EXTT41=
EXTT42=
EXTT43=
EXTT44=
EXTT45=
EXTT46=
EXTT47=
EXTT48=
EXTT49=
EXTT50=
EXTT51=
PLAYORDER=
